# Blender v2.83.0 OBJ File: ''
# www.blender.org
mtllib new-ceiling.mtl
o Plane
v -260.643524 144.458191 437.106964
v 262.650360 144.458191 437.106964
v -260.643524 144.458191 -436.443451
v 262.650360 144.458191 -436.443451
v -260.643524 144.458191 -145.746704
v 262.650360 144.458191 -145.746704
v -260.643524 144.458191 141.701843
v 262.650360 144.458191 141.701843
v -157.102112 144.458191 437.106964
v -157.102112 144.458191 -436.443451
v -157.102112 144.458191 -145.746704
v -157.102112 144.458191 141.701843
v 32.158897 144.458191 437.106964
v 32.158897 144.458191 -436.443451
v 32.158897 144.458191 -145.746704
v 32.158897 144.458191 141.701843
v -260.643524 114.458191 437.106964
v 262.650360 114.458191 437.106964
v -260.643524 114.458191 -436.443451
v 262.650360 114.458191 -436.443451
v -260.643524 114.458191 -145.746704
v 262.650360 114.458191 -145.746704
v -260.643524 114.458191 141.701843
v 262.650360 114.458191 141.701843
v -157.102112 114.458191 437.106964
v -157.102112 114.458191 -436.443451
v -157.102112 114.458191 -145.746704
v -157.102112 114.458191 141.701843
v 32.158897 114.458191 437.106964
v 32.158897 114.458191 -436.443451
v 32.158897 114.458191 -145.746704
v 32.158897 114.458191 141.701843
vt 0.559537 0.667224
vt 1.000000 0.667224
vt 1.000000 1.000000
vt 0.559537 1.000000
vt 0.559537 0.338166
vt 1.000000 0.338166
vt 0.559537 0.000000
vt 1.000000 0.000000
vt 0.000000 0.000000
vt 0.197865 0.000000
vt 0.197865 0.338166
vt 0.000000 0.338166
vt 0.197865 0.667224
vt 0.000000 0.667224
vt 0.197865 1.000000
vt 0.000000 1.000000
vt 0.559537 0.667224
vt 0.559537 1.000000
vt 1.000000 1.000000
vt 1.000000 0.667224
vt 0.559537 0.338166
vt 1.000000 0.338166
vt 0.559537 0.000000
vt 1.000000 0.000000
vt 0.000000 0.000000
vt 0.000000 0.338166
vt 0.197865 0.338166
vt 0.197865 0.000000
vt 0.000000 0.667224
vt 0.197865 0.667224
vt 0.000000 1.000000
vt 0.197865 1.000000
vn 0.0000 1.0000 0.0000
vn 0.0000 -1.0000 0.0000
vn -1.0000 0.0000 0.0000
vn 0.0000 0.0000 1.0000
vn 1.0000 0.0000 0.0000
vn 0.0000 0.0000 -1.0000
usemtl None
s off
f 15/1/1 6/2/1 4/3/1 14/4/1
f 16/5/1 8/6/1 6/2/1 15/1/1
f 13/7/1 2/8/1 8/6/1 16/5/1
f 1/9/1 9/10/1 12/11/1 7/12/1
f 7/12/1 12/11/1 11/13/1 5/14/1
f 5/14/1 11/13/1 10/15/1 3/16/1
f 9/10/1 13/7/1 16/5/1 12/11/1
f 12/11/1 16/5/1 15/1/1 11/13/1
f 11/13/1 15/1/1 14/4/1 10/15/1
f 31/17/2 30/18/2 20/19/2 22/20/2
f 32/21/2 31/17/2 22/20/2 24/22/2
f 29/23/2 32/21/2 24/22/2 18/24/2
f 17/25/2 23/26/2 28/27/2 25/28/2
f 23/26/2 21/29/2 27/30/2 28/27/2
f 21/29/2 19/31/2 26/32/2 27/30/2
f 25/28/2 28/27/2 32/21/2 29/23/2
f 28/27/2 27/30/2 31/17/2 32/21/2
f 27/30/2 26/32/2 30/18/2 31/17/2
f 1/9/3 7/12/3 23/26/3 17/25/3
f 2/8/4 13/7/4 29/23/4 18/24/4
f 4/3/5 6/2/5 22/20/5 20/19/5
f 3/16/6 10/15/6 26/32/6 19/31/6
f 5/14/3 3/16/3 19/31/3 21/29/3
f 6/2/5 8/6/5 24/22/5 22/20/5
f 7/12/3 5/14/3 21/29/3 23/26/3
f 8/6/5 2/8/5 18/24/5 24/22/5
f 9/10/4 1/9/4 17/25/4 25/28/4
f 10/15/6 14/4/6 30/18/6 26/32/6
f 13/7/4 9/10/4 25/28/4 29/23/4
f 14/4/6 4/3/6 20/19/6 30/18/6
