# Blender v2.83.0 OBJ File: ''
# www.blender.org
mtllib door-frame.mtl
o DoorFrame_DoorFrane.001
v 93.636917 -115.000000 -206.458618
v 93.636917 -115.000000 -211.082748
v 99.455017 -115.000000 -211.082748
v 93.636917 37.724930 -206.458618
v 93.636917 37.724930 -211.082748
v 166.363083 37.724930 -211.082748
v 166.363083 37.724930 -206.458618
v 160.544983 31.906845 -206.458618
v 99.455017 31.906845 -211.082748
v 160.544983 -115.000000 -206.458618
v 166.363083 -115.000000 -206.458618
v 166.363083 -115.000000 -211.082748
v 160.544983 31.906845 -208.770691
v 99.455017 31.906845 -208.770691
v 99.455017 -115.000000 -208.770691
v 100.909538 31.906845 -208.770691
v 100.909538 -115.000000 -208.770691
v 100.909538 31.906845 -211.082748
v 100.909538 -115.000000 -211.082748
v 160.544983 -115.000000 -208.770691
v 99.455017 31.906845 -206.458618
v 99.455017 -115.000000 -206.458618
v 160.544983 31.906845 -211.082748
v 160.544983 -115.000000 -211.082748
v 159.090469 -115.000000 -211.082748
v 159.090469 -115.000000 -208.770691
v 159.090469 31.906845 -211.082748
v 159.090469 30.452301 -208.770691
v 159.090469 31.906845 -208.770691
v 100.909538 30.452301 -211.082748
v 100.909538 30.452301 -208.770691
v 159.090469 30.452301 -211.082748
vn -1.0000 0.0000 0.0000
vn 0.0000 1.0000 0.0000
vn 1.0000 0.0000 0.0000
vn -0.0000 0.0000 -1.0000
vn 0.0000 -1.0000 0.0000
vn -0.0000 0.0000 1.0000
usemtl Door_material.001
s off
f 4//1 5//1 2//1 1//1
f 8//1 13//1 20//1 10//1
f 5//2 4//2 7//2 6//2
f 11//3 12//3 6//3 7//3
f 14//3 21//3 22//3 15//3
f 18//3 16//3 17//3 19//3
f 12//4 24//4 23//4 6//4
f 21//5 14//5 13//5 8//5
f 21//6 4//6 1//6 22//6
f 10//6 11//6 7//6 8//6
f 14//6 15//6 17//6 16//6
f 5//4 9//4 3//4 2//4
f 30//5 32//5 28//5 31//5
f 8//6 7//6 4//6 21//6
f 9//4 5//4 6//4 23//4
f 15//5 3//5 19//5 17//5
f 18//4 19//4 3//4 9//4
f 29//6 26//6 20//6 13//6
f 29//1 27//1 25//1 26//1
f 26//5 25//5 24//5 20//5
f 23//4 24//4 25//4 27//4
f 30//4 18//4 27//4 32//4
f 16//6 31//6 28//6 29//6
f 9//6 23//6 27//6
