# Blender v2.83.0 OBJ File: ''
# www.blender.org
mtllib door-frame.mtl
o DoorFrame_DoorFrane
v 93.636917 37.724964 -204.637497
v 93.636917 37.724964 -217.725021
v 93.636917 -114.999962 -217.725037
v 93.636917 -114.999969 -204.637512
v 160.544983 31.906878 -204.637497
v 160.544983 31.906879 -211.181259
v 160.544983 -114.999962 -211.181274
v 160.544983 -114.999969 -204.637512
v 166.363083 37.724964 -204.637497
v 166.363083 37.724964 -217.725021
v 166.363083 -114.999969 -204.637512
v 166.363083 -114.999962 -217.725037
v 99.455017 31.906879 -211.181259
v 99.455017 31.906878 -204.637497
v 99.455017 -114.999969 -204.637512
v 99.455017 -114.999962 -211.181274
v 100.909538 31.906881 -217.725021
v 100.909538 31.906879 -211.181259
v 100.909538 -114.999962 -211.181274
v 100.909538 -114.999962 -217.725037
v 160.544983 -114.999962 -217.725037
v 160.544983 31.906881 -217.725021
v 99.455017 31.906881 -217.725021
v 99.455017 -114.999962 -217.725037
v 100.909538 30.452337 -217.725021
v 159.090469 30.452337 -217.725021
v 159.090469 30.452335 -211.181259
v 100.909538 30.452335 -211.181259
v 159.090469 31.906879 -211.181259
v 159.090469 -114.999962 -211.181274
v 159.090469 31.906881 -217.725021
v 159.090469 -114.999962 -217.725037
vn -1.0000 0.0000 0.0000
vn 0.0000 1.0000 0.0000
vn 1.0000 0.0000 0.0000
vn 0.0000 0.0000 -1.0000
vn 0.0000 -1.0000 -0.0000
vn 0.0000 -0.0000 1.0000
usemtl Door_material
s off
f 1//1 2//1 3//1 4//1
f 5//1 6//1 7//1 8//1
f 2//2 1//2 9//2 10//2
f 11//3 12//3 10//3 9//3
f 13//3 14//3 15//3 16//3
f 17//3 18//3 19//3 20//3
f 12//4 21//4 22//4 10//4
f 14//5 13//5 6//5 5//5
f 14//6 1//6 4//6 15//6
f 8//6 11//6 9//6 5//6
f 13//6 16//6 19//6 18//6
f 2//4 23//4 24//4 3//4
f 25//5 26//5 27//5 28//5
f 5//6 9//6 1//6 14//6
f 23//4 2//4 10//4 22//4
f 16//5 24//5 20//5 19//5
f 17//4 20//4 24//4 23//4
f 29//6 30//6 7//6 6//6
f 29//1 31//1 32//1 30//1
f 30//5 32//5 21//5 7//5
f 22//4 21//4 32//4 31//4
f 25//4 17//4 31//4 26//4
f 18//6 28//6 27//6 29//6
f 23//4 22//4 31//4
