# Blender v2.83.0 OBJ File: ''
# www.blender.org
mtllib garden-door1.mtl
o Plane_Plane.001
v -81.803810 -109.353287 311.161591
v 30.222336 -109.353287 311.161591
v -81.803810 41.482914 311.161591
v 30.222336 41.482914 311.161591
v -81.803810 -98.696381 311.161591
v 30.222336 -98.696381 311.161591
v 21.292713 -109.353287 311.161591
v 21.292713 41.482914 311.161591
v 21.292713 -98.696381 311.161591
v -72.138512 41.482914 311.161591
v -72.138512 -98.696381 311.161591
v -72.138504 -109.353287 311.161591
v 30.222336 32.517956 311.161591
v -81.803810 32.517956 311.161591
v 21.292713 32.517956 311.161591
v -72.138512 32.517956 311.161591
v -81.803810 -109.353287 308.161591
v 30.222336 -109.353287 308.161591
v -81.803810 41.482914 308.161591
v 30.222336 41.482914 308.161591
v -81.803810 -98.696381 308.161591
v 30.222336 -98.696381 308.161591
v 21.292713 -109.353287 308.161591
v 21.292713 41.482914 308.161591
v 21.292713 -98.696381 308.161591
v -72.138512 41.482914 308.161591
v -72.138512 -98.696381 308.161591
v -72.138504 -109.353287 308.161591
v 30.222336 32.517956 308.161591
v -81.803810 32.517956 308.161591
v 21.292713 32.517956 308.161591
v -72.138512 32.517956 308.161591
vt 0.920290 0.940565
vt 1.000000 0.940565
vt 1.000000 1.000000
vt 0.920290 1.000000
vt 0.920290 0.000000
vt 1.000000 0.000000
vt 1.000000 0.070652
vt 0.920290 0.070652
vt 0.086277 0.000000
vt 0.086277 0.070652
vt 0.086277 0.940565
vt 0.086277 1.000000
vt 0.000000 0.940565
vt 0.000000 1.000000
vt 0.000000 0.000000
vt 0.000000 0.070652
vt 0.920290 0.940565
vt 0.920290 1.000000
vt 1.000000 1.000000
vt 1.000000 0.940565
vt 0.920290 0.000000
vt 0.920290 0.070652
vt 1.000000 0.070652
vt 1.000000 0.000000
vt 0.086277 0.000000
vt 0.086277 0.070652
vt 0.086277 0.940565
vt 0.086277 1.000000
vt 0.000000 0.940565
vt 0.000000 1.000000
vt 0.000000 0.000000
vt 0.000000 0.070652
vn 0.0000 0.0000 1.0000
vn 0.0000 0.0000 -1.0000
vn -1.0000 0.0000 0.0000
vn 0.0000 -1.0000 0.0000
vn 1.0000 0.0000 0.0000
vn 0.0000 1.0000 0.0000
usemtl None
s off
f 15/1/1 13/2/1 4/3/1 8/4/1
f 7/5/1 2/6/1 6/7/1 9/8/1
f 12/9/1 7/5/1 9/8/1 11/10/1
f 16/11/1 15/1/1 8/4/1 10/12/1
f 14/13/1 16/11/1 10/12/1 3/14/1
f 1/15/1 12/9/1 11/10/1 5/16/1
f 5/16/1 11/10/1 16/11/1 14/13/1
f 9/8/1 6/7/1 13/2/1 15/1/1
f 31/17/2 24/18/2 20/19/2 29/20/2
f 23/21/2 25/22/2 22/23/2 18/24/2
f 28/25/2 27/26/2 25/22/2 23/21/2
f 32/27/2 26/28/2 24/18/2 31/17/2
f 30/29/2 19/30/2 26/28/2 32/27/2
f 17/31/2 21/32/2 27/26/2 28/25/2
f 21/32/2 30/29/2 32/27/2 27/26/2
f 25/22/2 31/17/2 29/20/2 22/23/2
f 1/15/3 5/16/3 21/32/3 17/31/3
f 2/6/4 7/5/4 23/21/4 18/24/4
f 4/3/5 13/2/5 29/20/5 20/19/5
f 3/14/6 10/12/6 26/28/6 19/30/6
f 5/16/3 14/13/3 30/29/3 21/32/3
f 6/7/5 2/6/5 18/24/5 22/23/5
f 7/5/4 12/9/4 28/25/4 23/21/4
f 8/4/6 4/3/6 20/19/6 24/18/6
f 10/12/6 8/4/6 24/18/6 26/28/6
f 11/10/6 9/8/6 25/22/6 27/26/6
f 12/9/4 1/15/4 17/31/4 28/25/4
f 13/2/5 6/7/5 22/23/5 29/20/5
f 14/13/3 3/14/3 19/30/3 30/29/3
f 9/8/3 15/1/3 31/17/3 25/22/3
f 16/11/5 11/10/5 27/26/5 32/27/5
f 15/1/4 16/11/4 32/27/4 31/17/4
