# Blender v2.83.0 OBJ File: ''
# www.blender.org
mtllib garden-door-frame.mtl
o WindowFrame.002_WindowFrane.003
v -81.250587 -115.000000 305.000000
v -81.250587 -111.758743 305.000000
v -81.250587 -111.758743 309.062500
v -81.250587 -108.517487 309.062500
v -81.250587 -108.517487 309.880859
v -81.250587 -111.758743 309.880859
v -81.250587 -111.758743 313.680298
v -81.250587 -108.517487 313.680298
v -81.250587 -108.517487 314.498657
v -81.250587 -111.758743 314.498657
v -81.250587 -111.758743 316.456848
v 141.250580 -115.000000 305.000000
v 141.250580 -111.758743 305.000000
v 141.250580 -111.758743 309.062500
v 141.250580 -108.517487 309.062500
v 141.250580 -108.517487 309.880859
v 141.250580 -111.758743 309.880859
v 141.250580 -111.758743 313.680298
v 141.250580 -108.517487 313.680298
v 141.250580 -108.517487 314.498657
v 141.250580 -111.758743 314.498657
v 141.250580 -111.758743 316.456848
v -81.250587 47.062866 305.000000
v -81.250587 43.821609 305.000000
v -81.250587 43.821609 309.062500
v -81.250587 40.580353 309.062500
v -81.250587 40.580353 309.880859
v -81.250587 43.821609 309.880859
v -81.250587 43.821609 313.680298
v -81.250587 40.580353 313.680298
v -81.250587 40.580353 314.498657
v -81.250587 43.821609 314.498657
v -81.250587 43.821609 316.456848
v 141.250580 43.821609 305.000000
v 141.250580 43.821609 309.062500
v 141.250580 40.580353 309.062500
v 141.250580 40.580353 309.880859
v 141.250580 43.821609 309.880859
v 141.250580 43.821609 313.680298
v 141.250580 40.580353 313.680298
v 141.250580 40.580353 314.498657
v 141.250580 43.821609 314.498657
v 141.250580 43.821609 316.456848
v -80.879753 -115.000000 305.000000
v -80.879753 -115.000000 307.338135
v -77.171394 -115.000000 307.338135
v -77.171394 -115.000000 307.571930
v -80.879753 -115.000000 307.571930
v -80.879753 -115.000000 311.955933
v -77.171394 -115.000000 311.955933
v -77.171394 -115.000000 312.189758
v -80.879753 -115.000000 312.189758
v -80.879753 -115.000000 316.456848
v -75.317223 -115.000000 316.456848
v -75.317223 -115.000000 316.690643
v -81.250587 -115.000000 316.690643
v -80.879753 47.062866 305.000000
v -80.879753 47.062866 307.338135
v -77.171394 47.062866 307.338135
v -77.171394 47.062866 307.571930
v -80.879753 47.062866 307.571930
v -80.879753 47.062866 311.955933
v -77.171394 47.062866 311.955933
v -77.171394 47.062866 312.189758
v -80.879753 47.062866 312.189758
v -80.879753 47.062866 316.456848
v -75.317223 47.062866 316.456848
v -75.317223 47.062866 316.690643
v -81.250587 47.062866 316.690643
v 140.879761 -115.000000 305.000000
v 140.879761 -115.000000 307.338135
v 137.171387 -115.000000 307.338135
v 137.171387 -115.000000 307.571930
v 140.879761 -115.000000 307.571930
v 140.879761 -115.000000 311.955933
v 137.171387 -115.000000 311.955933
v 137.171387 -115.000000 312.189758
v 140.879761 -115.000000 312.189758
v 140.879761 -115.000000 316.456848
v 135.317230 -115.000000 316.456848
v 135.317230 -115.000000 316.690643
v 141.250580 -115.000000 316.690643
v 141.250580 47.062866 305.000000
v 140.879761 47.062866 305.000000
v 140.879761 47.062866 307.338135
v 137.171387 47.062866 307.338135
v 137.171387 47.062866 307.571930
v 140.879761 47.062866 307.571930
v 140.879761 47.062866 311.955933
v 137.171387 47.062866 311.955933
v 137.171387 47.062866 312.189758
v 140.879761 47.062866 312.189758
v 140.879761 47.062866 316.456848
v 135.317230 47.062866 316.456848
v 135.317230 47.062866 316.690643
v 141.250580 47.062866 316.690643
v -75.224503 -115.000000 316.690643
v -75.224503 -115.000000 316.456848
v 135.224503 -115.000000 316.456848
v 135.224503 -115.000000 316.690643
v -75.224503 -110.138115 316.690643
v -75.224503 -110.138115 316.456848
v 135.224503 -110.138115 316.456848
v 135.224503 -110.138115 316.690643
v -75.224503 42.200989 316.690643
v -75.224503 42.200989 316.456848
v 135.224503 42.200989 316.456848
v 135.224503 42.200989 316.690643
v -75.224503 47.062866 316.690643
v -75.224503 47.062866 316.456848
v 135.224503 47.062866 316.456848
v 135.224503 47.062866 316.690643
v -83.104759 48.683487 316.690643
v 143.104767 48.683487 316.690643
v -83.104759 -116.620628 316.690643
v 143.104767 -116.620628 316.690643
v -81.065170 46.900803 316.690643
v 141.065170 46.900803 316.690643
v -81.065170 -114.837936 316.690643
v 141.065170 -114.837936 316.690643
v -83.104759 48.683487 316.924469
v 143.104767 48.683487 316.924469
v -83.104759 -116.620628 316.924469
v 143.104767 -116.620628 316.924469
v -81.065170 46.900803 316.924469
v 141.065170 46.900803 316.924469
v -81.065170 -114.837936 316.924469
v 141.065170 -114.837936 316.924469
vn 0.0000 0.0000 -1.0000
vn 0.0000 1.0000 0.0000
vn 0.0000 0.0000 1.0000
vn 0.0000 -1.0000 0.0000
vn -1.0000 0.0000 0.0000
vn 1.0000 0.0000 0.0000
usemtl Window_material.004
s off
f 13//1 12//1 1//1 2//1
f 14//2 13//2 2//2 3//2
f 15//1 14//1 3//1 4//1
f 16//2 15//2 4//2 5//2
f 17//3 16//3 5//3 6//3
f 18//2 17//2 6//2 7//2
f 19//1 18//1 7//1 8//1
f 20//2 19//2 8//2 9//2
f 21//3 20//3 9//3 10//3
f 21//2 10//2 11//2 22//2
f 34//1 24//1 23//1 83//1
f 35//4 25//4 24//4 34//4
f 36//1 26//1 25//1 35//1
f 37//4 27//4 26//4 36//4
f 38//3 28//3 27//3 37//3
f 39//4 29//4 28//4 38//4
f 40//1 30//1 29//1 39//1
f 41//4 31//4 30//4 40//4
f 42//3 32//3 31//3 41//3
f 42//4 43//4 33//4 32//4
f 56//5 69//5 23//5 1//5
f 56//3 55//3 68//3 69//3
f 54//1 53//1 66//1 67//1
f 49//6 48//6 61//6 62//6
f 53//6 52//6 65//6 66//6
f 67//2 66//2 69//2 68//2
f 66//3 65//3 57//3 58//3
f 64//2 63//2 62//2 65//2
f 59//2 58//2 61//2 60//2
f 52//3 51//3 64//3 65//3
f 50//1 49//1 62//1 63//1
f 46//1 45//1 58//1 59//1
f 48//3 47//3 60//3 61//3
f 47//6 46//6 59//6 60//6
f 50//4 51//4 52//4 49//4
f 46//4 47//4 48//4 45//4
f 54//4 55//4 56//4 53//4
f 49//2 48//2 52//2 53//2
f 44//1 1//1 23//1 57//1
f 61//2 58//2 57//2 23//2 69//2 66//2 65//2 62//2
f 51//6 50//6 63//6 64//6
f 55//6 54//6 67//6 68//6
f 45//6 44//6 57//6 58//6
f 48//4 49//4 52//4 53//4 56//4 1//4 44//4 45//4
f 82//6 12//6 83//6 96//6
f 82//3 96//3 95//3 81//3
f 80//1 94//1 93//1 79//1
f 75//5 89//5 88//5 74//5
f 79//5 93//5 92//5 78//5
f 94//2 95//2 96//2 93//2
f 93//4 92//4 84//4 85//4
f 91//2 92//2 89//2 90//2
f 86//2 87//2 88//2 85//2
f 78//3 92//3 91//3 77//3
f 76//1 90//1 89//1 75//1
f 72//1 86//1 85//1 71//1
f 74//3 88//3 87//3 73//3
f 73//5 87//5 86//5 72//5
f 76//4 75//4 78//4 77//4
f 72//4 71//4 74//4 73//4
f 80//4 79//4 82//4 81//4
f 75//4 74//4 78//4 79//4
f 70//1 84//1 83//1 12//1
f 88//2 89//2 92//2 93//2 96//2 83//2 84//2 85//2
f 77//5 91//5 90//5 76//5
f 81//5 95//5 94//5 80//5
f 71//5 85//5 84//5 70//5
f 74//4 71//4 70//4 12//4 82//4 79//4 78//4 75//4
f 97//4 98//4 99//4 100//4
f 97//5 101//5 102//5 98//5
f 98//1 102//1 103//1 99//1
f 99//6 103//6 104//6 100//6
f 102//2 101//2 104//2 103//2
f 97//3 100//3 104//3 101//3
f 105//4 106//4 107//4 108//4
f 105//5 109//5 110//5 106//5
f 106//1 110//1 111//1 107//1
f 107//6 111//6 112//6 108//6
f 110//2 109//2 112//2 111//2
f 105//3 108//3 112//3 109//3
f 116//6 114//6 122//6 124//6
f 122//2 114//2 113//2 121//2
f 114//1 118//1 117//1 113//1
f 116//1 120//1 118//1 114//1
f 120//1 116//1 115//1 119//1
f 113//1 117//1 119//1 115//1
f 122//3 121//3 125//3 126//3
f 124//3 122//3 126//3 128//3
f 128//3 127//3 123//3 124//3
f 121//3 123//3 127//3 125//3
f 124//4 123//4 115//4 116//4
f 115//5 123//5 121//5 113//5
f 127//6 119//6 117//6 125//6
f 120//2 119//2 127//2 128//2
f 118//4 126//4 125//4 117//4
f 128//5 126//5 118//5 120//5
