# Blender v2.83.0 OBJ File: ''
# www.blender.org
mtllib shelves.mtl
o Würfel.1_1
v -16.692118 -97.488266 -186.184921
v -16.692118 -94.988266 -186.184921
v -159.336746 -94.988266 -186.184921
v -159.336746 -97.488266 -186.184921
v -16.692118 -97.488258 -209.594086
v -16.692118 -94.988258 -209.594086
v -159.336746 -97.488258 -209.594086
v -159.336746 -94.988258 -209.594086
vt 1.000000 0.000000
vt 1.000000 1.000000
vt 0.000000 1.000000
vt 0.000000 0.000000
vt 1.000000 0.000000
vt 1.000000 1.000000
vt 0.000000 1.000000
vt 0.000000 0.000000
vt 1.000000 0.000000
vt 1.000000 1.000000
vt 0.000000 1.000000
vt 0.000000 0.000000
vt 1.000000 0.000000
vt 1.000000 1.000000
vt 0.000000 1.000000
vt 0.000000 0.000000
vt 1.000000 0.000000
vt 0.000000 0.000000
vt 1.000000 1.000000
vt 0.000000 1.000000
vn 0.0000 0.0000 1.0000
vn 1.0000 0.0000 0.0000
vn 0.0000 0.0000 -1.0000
vn -1.0000 0.0000 0.0000
vn 0.0000 1.0000 0.0000
vn 0.0000 -1.0000 -0.0000
usemtl default.001
s 1
f 1/1/1 2/2/1 3/3/1 4/4/1
f 5/5/2 6/6/2 2/7/2 1/8/2
f 7/9/3 8/10/3 6/11/3 5/12/3
f 4/13/4 3/14/4 8/15/4 7/16/4
f 2/17/5 6/6/5 8/15/5 3/18/5
f 5/5/6 1/19/6 4/20/6 7/16/6
o Würfel.2
v -16.692118 -79.941727 -186.516190
v -16.692118 -77.441727 -186.516190
v -159.336746 -77.441727 -186.516190
v -159.336746 -79.941727 -186.516190
v -16.692118 -79.941719 -209.925354
v -16.692118 -77.441719 -209.925354
v -159.336746 -79.941719 -209.925354
v -159.336746 -77.441719 -209.925354
vt 1.000000 0.000000
vt 1.000000 1.000000
vt 0.000000 1.000000
vt 0.000000 0.000000
vt 1.000000 0.000000
vt 1.000000 1.000000
vt 0.000000 1.000000
vt 0.000000 0.000000
vt 1.000000 0.000000
vt 1.000000 1.000000
vt 0.000000 1.000000
vt 0.000000 0.000000
vt 1.000000 0.000000
vt 1.000000 1.000000
vt 0.000000 1.000000
vt 0.000000 0.000000
vt 1.000000 0.000000
vt 0.000000 0.000000
vt 1.000000 1.000000
vt 0.000000 1.000000
vn 0.0000 0.0000 1.0000
vn 1.0000 0.0000 0.0000
vn 0.0000 0.0000 -1.0000
vn -1.0000 0.0000 0.0000
vn 0.0000 1.0000 0.0000
vn 0.0000 -1.0000 -0.0000
usemtl default.001
s 1
f 9/21/7 10/22/7 11/23/7 12/24/7
f 13/25/8 14/26/8 10/27/8 9/28/8
f 15/29/9 16/30/9 14/31/9 13/32/9
f 12/33/10 11/34/10 16/35/10 15/36/10
f 10/37/11 14/26/11 16/35/11 11/38/11
f 13/25/12 9/39/12 12/40/12 15/36/12
