# Blender v2.83.0 OBJ File: ''
# www.blender.org
mtllib table-feet.mtl
o Rectangle052
v -84.381104 -111.679558 -52.826233
v -88.534637 -111.679558 -52.829102
v -86.044037 -84.512291 -50.006836
v -73.583435 -84.512291 -49.998169
v -88.537140 -111.679558 -48.128052
v -86.050690 -84.512291 -37.784058
v -86.875702 -111.679558 -48.126892
v -84.389252 -84.512291 -37.782837
v -86.874237 -111.679558 -50.947571
v -84.383575 -84.512291 -48.125122
v -84.382111 -111.679558 -50.945801
v -73.584381 -84.512291 -48.117737
vt 0.631500 0.049200
vt 0.795900 0.049200
vt 0.697300 0.921000
vt 0.204100 0.921000
vt 0.283500 0.049200
vt 0.448600 0.060700
vt 0.716500 0.950800
vt 0.287200 0.921000
vt 0.204100 0.060700
vt 0.269800 0.060700
vt 0.368500 0.950800
vt 0.302700 0.950800
vt 0.551400 0.060700
vt 0.650500 0.053800
vt 0.646700 0.925600
vt 0.283500 0.950800
vt 0.269800 0.053800
vt 0.368500 0.053800
vt 0.795900 0.925600
vt 0.368500 0.925600
vt 0.650500 0.053800
vt 0.716500 0.049200
vt 0.712800 0.921000
vt 0.646700 0.925600
vt 0.204100 0.283500
vt 0.368500 0.283500
vt 0.368500 0.349500
vt 0.269800 0.349500
vt 0.269800 0.448600
vt 0.204100 0.448600
vt 0.697300 0.287200
vt 0.697300 0.716500
vt 0.631500 0.716500
vt 0.631500 0.353300
vt 0.204100 0.353300
vt 0.204100 0.287200
vn 0.4500 -0.6242 -0.6386
vn -0.5994 -0.5220 -0.6068
vn -0.5515 0.6320 -0.5445
vn 0.6936 0.4883 -0.5296
vn -0.5994 -0.5256 -0.6037
vn -0.6286 -0.6312 0.4544
vn -0.5387 0.4868 0.6876
vn -0.5510 0.6286 -0.5488
vn -0.6271 -0.6414 0.4419
vn 0.5638 -0.6976 0.4422
vn 0.5857 0.4371 0.6826
vn -0.5381 0.4717 0.6985
vn 0.5623 -0.6887 0.4577
vn 0.5994 0.5254 0.6039
vn 0.5510 -0.6285 0.5489
vn 0.5850 0.4509 0.6741
vn 0.5994 0.5219 0.6068
vn 0.4497 -0.6970 0.5585
vn 0.6770 0.4407 0.5894
vn 0.5516 -0.6319 0.5445
vn 0.4472 -0.6939 0.5644
vn 0.4504 -0.6294 -0.6332
vn 0.6956 0.4831 -0.5318
vn 0.6766 0.4439 0.5875
vn -0.5993 -0.5299 -0.6001
vn 0.4508 -0.6318 -0.6306
vn 0.4506 -0.6892 0.5674
vn 0.5993 0.5299 0.6001
vn 0.5637 -0.6785 0.4710
vn -0.6273 -0.6222 0.4685
vn -0.5518 0.6247 -0.5525
vn -0.5378 0.5008 0.6782
vn 0.5859 0.4652 0.6636
vn 0.5518 -0.6247 0.5525
vn 0.6764 0.4491 0.5838
vn 0.6930 0.4824 -0.5357
usemtl wire_088144225
s 1
f 1/1/1 2/2/2 3/3/3 4/4/4
f 2/5/5 5/6/6 6/7/7 3/8/8
f 5/9/9 7/10/10 8/11/11 6/12/12
f 7/13/13 9/14/14 10/15/15 8/16/16
f 9/17/17 11/18/18 12/19/19 10/20/20
f 11/21/21 1/22/22 4/23/23 12/24/24
f 2/25/25 1/26/26 11/27/27 9/28/28 7/29/29 5/30/30
f 3/31/31 6/32/32 8/33/33 10/34/34 12/35/35 4/36/36
o Rectangle053
v -45.339417 -84.512291 -49.978394
v -32.878784 -84.512291 -49.969788
v -30.385101 -111.679558 -52.788696
v -34.538635 -111.679558 -52.791565
v -32.885437 -84.512291 -37.747009
v -30.387665 -111.679558 -48.087585
v -34.546844 -84.512291 -37.748169
v -32.049103 -111.679558 -48.088745
v -34.541229 -84.512291 -48.090454
v -32.047577 -111.679558 -50.909424
v -45.340424 -84.512291 -48.098022
v -34.539703 -111.679558 -50.911133
vt 0.204100 0.921000
vt 0.697300 0.921000
vt 0.795900 0.049200
vt 0.631500 0.049200
vt 0.287200 0.921000
vt 0.716500 0.950800
vt 0.448600 0.060700
vt 0.283500 0.049200
vt 0.302700 0.950800
vt 0.368500 0.950800
vt 0.269800 0.060700
vt 0.204100 0.060700
vt 0.283500 0.950800
vt 0.646700 0.925600
vt 0.650500 0.053800
vt 0.551400 0.060700
vt 0.368500 0.925600
vt 0.795900 0.925600
vt 0.368500 0.053800
vt 0.269800 0.053800
vt 0.646700 0.925600
vt 0.712800 0.921000
vt 0.716500 0.049200
vt 0.650500 0.053800
vt 0.204100 0.448600
vt 0.269800 0.448600
vt 0.269800 0.349500
vt 0.368500 0.349500
vt 0.368500 0.283500
vt 0.204100 0.283500
vt 0.204100 0.287200
vt 0.204100 0.353300
vt 0.631500 0.353300
vt 0.631500 0.716500
vt 0.697300 0.716500
vt 0.697300 0.287200
vn -0.6930 0.4882 -0.5305
vn 0.5524 0.6319 -0.5437
vn 0.6003 -0.5219 -0.6060
vn -0.4491 -0.6243 -0.6392
vn 0.5516 0.6287 -0.5481
vn 0.5380 0.4868 0.6881
vn 0.6281 -0.6312 0.4551
vn 0.6001 -0.5257 -0.6029
vn 0.5373 0.4717 0.6992
vn -0.5866 0.4370 0.6818
vn -0.5645 -0.6975 0.4414
vn 0.6265 -0.6415 0.4427
vn -0.5858 0.4509 0.6734
vn -0.5516 -0.6285 0.5483
vn -0.6001 0.5254 0.6032
vn -0.5628 -0.6887 0.4571
vn -0.5523 -0.6319 0.5437
vn -0.6779 0.4407 0.5884
vn -0.4505 -0.6970 0.5579
vn -0.6003 0.5220 0.6059
vn -0.6773 0.4440 0.5866
vn -0.6950 0.4830 -0.5326
vn -0.4496 -0.6295 -0.6337
vn -0.4478 -0.6938 0.5640
vn 0.6267 -0.6222 0.4692
vn -0.5643 -0.6785 0.4703
vn -0.6001 0.5299 0.5993
vn -0.4513 -0.6892 0.5669
vn -0.4500 -0.6318 -0.6311
vn 0.6001 -0.5299 -0.5993
vn -0.6924 0.4824 -0.5365
vn -0.6772 0.4491 0.5829
vn -0.5525 -0.6247 0.5518
vn -0.5867 0.4652 0.6629
vn 0.5371 0.5008 0.6788
vn 0.5525 0.6247 -0.5518
usemtl wire_088144225
s 1
f 13/37/37 14/38/38 15/39/39 16/40/40
f 14/41/41 17/42/42 18/43/43 15/44/44
f 17/45/45 19/46/46 20/47/47 18/48/48
f 19/49/49 21/50/50 22/51/51 20/52/52
f 21/53/53 23/54/54 24/55/55 22/56/56
f 23/57/57 13/58/58 16/59/59 24/60/60
f 18/61/61 20/62/62 22/63/63 24/64/64 16/65/65 15/66/66
f 13/67/67 23/68/68 21/69/69 19/70/70 17/71/71 14/72/72
o Rectangle054
v -34.594818 -111.679573 50.631714
v -30.441284 -111.679573 50.634644
v -32.931885 -84.512306 47.812195
v -45.392487 -84.512306 47.803589
v -30.438782 -111.679573 45.933594
v -32.925232 -84.512306 35.589417
v -32.100189 -111.679573 45.932312
v -34.586639 -84.512306 35.588318
v -32.101685 -111.679573 48.752991
v -34.592316 -84.512306 45.930664
v -34.593781 -111.679573 48.751282
v -45.391541 -84.512306 45.923157
vt 0.631500 0.049200
vt 0.795900 0.049200
vt 0.697300 0.921000
vt 0.204100 0.921000
vt 0.283500 0.049200
vt 0.448600 0.060700
vt 0.716500 0.950800
vt 0.287200 0.921000
vt 0.204100 0.060700
vt 0.269800 0.060700
vt 0.368500 0.950800
vt 0.302700 0.950800
vt 0.551400 0.060700
vt 0.650500 0.053800
vt 0.646700 0.925600
vt 0.283500 0.950800
vt 0.269800 0.053800
vt 0.368500 0.053800
vt 0.795900 0.925600
vt 0.368500 0.925600
vt 0.650500 0.053800
vt 0.716500 0.049200
vt 0.712800 0.921000
vt 0.646700 0.925600
vt 0.204100 0.283500
vt 0.368500 0.283500
vt 0.368500 0.349500
vt 0.269800 0.349500
vt 0.269800 0.448600
vt 0.204100 0.448600
vt 0.697300 0.287200
vt 0.697300 0.716500
vt 0.631500 0.716500
vt 0.631500 0.353300
vt 0.204100 0.353300
vt 0.204100 0.287200
vn -0.4501 -0.6242 0.6386
vn 0.5994 -0.5220 0.6068
vn 0.5515 0.6320 0.5445
vn -0.6936 0.4883 0.5295
vn 0.5994 -0.5256 0.6037
vn 0.6286 -0.6312 -0.4544
vn 0.5387 0.4868 -0.6876
vn 0.5510 0.6286 0.5488
vn 0.6271 -0.6414 -0.4419
vn -0.5638 -0.6976 -0.4422
vn -0.5857 0.4370 -0.6826
vn 0.5381 0.4717 -0.6985
vn -0.5623 -0.6887 -0.4577
vn -0.5994 0.5254 -0.6039
vn -0.5510 -0.6285 -0.5489
vn -0.5850 0.4509 -0.6741
vn -0.5994 0.5219 -0.6068
vn -0.4497 -0.6970 -0.5585
vn -0.6770 0.4407 -0.5894
vn -0.5516 -0.6319 -0.5445
vn -0.4472 -0.6939 -0.5644
vn -0.4504 -0.6294 0.6332
vn -0.6956 0.4831 0.5318
vn -0.6766 0.4439 -0.5875
vn 0.5993 -0.5299 0.6001
vn -0.4508 -0.6318 0.6306
vn -0.4506 -0.6892 -0.5674
vn -0.5993 0.5299 -0.6001
vn -0.5637 -0.6785 -0.4710
vn 0.6273 -0.6222 -0.4684
vn 0.5518 0.6247 0.5525
vn 0.5379 0.5008 -0.6781
vn -0.5859 0.4652 -0.6636
vn -0.5518 -0.6247 -0.5525
vn -0.6764 0.4491 -0.5838
vn -0.6930 0.4824 0.5357
usemtl wire_088144225
s 1
f 25/73/73 26/74/74 27/75/75 28/76/76
f 26/77/77 29/78/78 30/79/79 27/80/80
f 29/81/81 31/82/82 32/83/83 30/84/84
f 31/85/85 33/86/86 34/87/87 32/88/88
f 33/89/89 35/90/90 36/91/91 34/92/92
f 35/93/93 25/94/94 28/95/95 36/96/96
f 26/97/97 25/98/98 35/99/99 33/100/100 31/101/101 29/102/102
f 27/103/103 30/104/104 32/105/105 34/106/106 36/107/107 28/108/108
o Rectangle055
v -73.636505 -84.512306 47.783875
v -86.097137 -84.512306 47.775208
v -88.590820 -111.679573 50.594177
v -84.437286 -111.679573 50.597107
v -86.090485 -84.512306 35.552490
v -88.588226 -111.679573 45.893127
v -84.429077 -84.512306 35.553711
v -86.926819 -111.679573 45.894287
v -84.434692 -84.512306 45.896057
v -86.928284 -111.679573 48.714905
v -73.635498 -84.512306 45.903442
v -84.436157 -111.679573 48.716675
vt 0.204100 0.921000
vt 0.697300 0.921000
vt 0.795900 0.049200
vt 0.631500 0.049200
vt 0.287200 0.921000
vt 0.716500 0.950800
vt 0.448600 0.060700
vt 0.283500 0.049200
vt 0.302700 0.950800
vt 0.368500 0.950800
vt 0.269800 0.060700
vt 0.204100 0.060700
vt 0.283500 0.950800
vt 0.646700 0.925600
vt 0.650500 0.053800
vt 0.551400 0.060700
vt 0.368500 0.925600
vt 0.795900 0.925600
vt 0.368500 0.053800
vt 0.269800 0.053800
vt 0.646700 0.925600
vt 0.712800 0.921000
vt 0.716500 0.049200
vt 0.650500 0.053800
vt 0.204100 0.448600
vt 0.269800 0.448600
vt 0.269800 0.349500
vt 0.368500 0.349500
vt 0.368500 0.283500
vt 0.204100 0.283500
vt 0.204100 0.287200
vt 0.204100 0.353300
vt 0.631500 0.353300
vt 0.631500 0.716500
vt 0.697300 0.716500
vt 0.697300 0.287200
vn 0.6929 0.4882 0.5305
vn -0.5524 0.6319 0.5437
vn -0.6003 -0.5219 0.6060
vn 0.4492 -0.6242 0.6392
vn -0.5516 0.6287 0.5481
vn -0.5380 0.4868 -0.6881
vn -0.6281 -0.6312 -0.4551
vn -0.6001 -0.5257 0.6029
vn -0.5372 0.4717 -0.6992
vn 0.5865 0.4371 -0.6819
vn 0.5645 -0.6975 -0.4414
vn -0.6265 -0.6415 -0.4427
vn 0.5858 0.4509 -0.6734
vn 0.5516 -0.6285 -0.5483
vn 0.6001 0.5254 -0.6032
vn 0.5628 -0.6887 -0.4571
vn 0.5523 -0.6319 -0.5437
vn 0.6779 0.4407 -0.5885
vn 0.4505 -0.6970 -0.5579
vn 0.6003 0.5219 -0.6060
vn 0.6773 0.4440 -0.5866
vn 0.6950 0.4830 0.5326
vn 0.4496 -0.6295 0.6337
vn 0.4478 -0.6938 -0.5640
vn -0.6267 -0.6222 -0.4692
vn 0.5643 -0.6785 -0.4703
vn 0.6001 0.5299 -0.5993
vn 0.4513 -0.6892 -0.5669
vn 0.4501 -0.6318 0.6311
vn -0.6001 -0.5299 0.5992
vn 0.6924 0.4824 0.5365
vn 0.6772 0.4491 -0.5829
vn 0.5525 -0.6247 -0.5518
vn 0.5867 0.4652 -0.6628
vn -0.5371 0.5008 -0.6788
vn -0.5525 0.6247 0.5518
usemtl wire_088144225
s 1
f 37/109/109 38/110/110 39/111/111 40/112/112
f 38/113/113 41/114/114 42/115/115 39/116/116
f 41/117/117 43/118/118 44/119/119 42/120/120
f 43/121/121 45/122/122 46/123/123 44/124/124
f 45/125/125 47/126/126 48/127/127 46/128/128
f 47/129/129 37/130/130 40/131/131 48/132/132
f 42/133/133 44/134/134 46/135/135 48/136/136 40/137/137 39/138/138
f 37/139/139 47/140/140 45/141/141 43/142/142 41/143/143 38/144/144
