# Blender v2.83.0 OBJ File: ''
# www.blender.org
mtllib table.mtl
o Box001.000
v -30.385101 -84.512291 -52.788696
v -30.441284 -84.512306 50.634644
v -88.590820 -84.512306 50.594177
v -88.534637 -84.512291 -52.829102
v -30.385101 -82.865791 -52.788696
v -88.534637 -82.865791 -52.829102
v -88.590820 -82.865807 50.594177
v -30.441284 -82.865807 50.634644
v -84.381195 -111.679565 -52.826172
v -88.534729 -111.679565 -52.829102
v -86.044128 -84.512299 -50.006775
v -73.583527 -84.512299 -49.998108
v -88.537231 -111.679565 -48.127991
v -86.050781 -84.512299 -37.783997
v -86.875824 -111.679565 -48.126892
v -84.389374 -84.512299 -37.782776
v -86.874329 -111.679565 -50.947510
v -84.383698 -84.512299 -48.125061
v -84.382202 -111.679565 -50.945740
v -73.584473 -84.512299 -48.117676
v -45.339508 -84.512299 -49.978394
v -32.878876 -84.512299 -49.969727
v -30.385193 -111.679565 -52.788635
v -34.538727 -111.679565 -52.791504
v -32.885529 -84.512299 -37.746948
v -30.387787 -111.679565 -48.087524
v -34.546936 -84.512299 -37.748108
v -32.049194 -111.679565 -48.088684
v -34.541321 -84.512299 -48.090454
v -32.047668 -111.679565 -50.909363
v -45.340515 -84.512299 -48.097961
v -34.539795 -111.679565 -50.911072
v -34.594910 -111.679581 50.631775
v -30.441376 -111.679581 50.634705
v -32.931976 -84.512314 47.812256
v -45.392578 -84.512314 47.803650
v -30.438873 -111.679581 45.933655
v -32.925323 -84.512314 35.589478
v -32.100311 -111.679581 45.932373
v -34.586761 -84.512314 35.588379
v -32.101776 -111.679581 48.752991
v -34.592438 -84.512314 45.930725
v -34.593903 -111.679581 48.751343
v -45.391632 -84.512314 45.923218
v -73.636597 -84.512314 47.783936
v -86.097229 -84.512314 47.775269
v -88.590881 -111.679581 50.594238
v -84.437378 -111.679581 50.597168
v -86.090576 -84.512314 35.552551
v -88.588318 -111.679581 45.893188
v -84.429169 -84.512314 35.553772
v -86.926910 -111.679581 45.894348
v -84.434784 -84.512314 45.896118
v -86.928375 -111.679581 48.714966
v -73.635590 -84.512314 45.903503
v -84.436279 -111.679581 48.716736
vt 70.000000 0.000000
vt 70.000000 110.000000
vt 0.000000 110.000000
vt 0.000000 0.000000
vt 0.000000 0.000000
vt 70.000000 0.000000
vt 70.000000 110.000000
vt 0.000000 110.000000
vt 0.000000 0.000000
vt 70.000000 0.000000
vt 70.000000 2.000000
vt 0.000000 2.000000
vt 110.000000 0.000000
vt 110.000000 2.000000
vt 0.000000 2.000000
vt 0.000000 0.000000
vt 70.000000 0.000000
vt 70.000000 2.000000
vt 0.000000 2.000000
vt 0.000000 0.000000
vt 110.000000 0.000000
vt 110.000000 2.000000
vt 0.000000 2.000000
vt 0.631500 0.049200
vt 0.795900 0.049200
vt 0.697300 0.921000
vt 0.204100 0.921000
vt 0.283500 0.049200
vt 0.448600 0.060700
vt 0.716500 0.950800
vt 0.287200 0.921000
vt 0.204100 0.060700
vt 0.269800 0.060700
vt 0.368500 0.950800
vt 0.302700 0.950800
vt 0.551400 0.060700
vt 0.650500 0.053800
vt 0.646700 0.925600
vt 0.283500 0.950800
vt 0.269800 0.053800
vt 0.368500 0.053800
vt 0.795900 0.925600
vt 0.368500 0.925600
vt 0.650500 0.053800
vt 0.716500 0.049200
vt 0.712800 0.921000
vt 0.646700 0.925600
vt 0.204100 0.283500
vt 0.368500 0.283500
vt 0.368500 0.349500
vt 0.269800 0.349500
vt 0.269800 0.448600
vt 0.204100 0.448600
vt 0.697300 0.287200
vt 0.697300 0.716500
vt 0.631500 0.716500
vt 0.631500 0.353300
vt 0.204100 0.353300
vt 0.204100 0.287200
vt 0.204100 0.921000
vt 0.697300 0.921000
vt 0.795900 0.049200
vt 0.631500 0.049200
vt 0.287200 0.921000
vt 0.716500 0.950800
vt 0.448600 0.060700
vt 0.283500 0.049200
vt 0.302700 0.950800
vt 0.368500 0.950800
vt 0.269800 0.060700
vt 0.204100 0.060700
vt 0.283500 0.950800
vt 0.646700 0.925600
vt 0.650500 0.053800
vt 0.551400 0.060700
vt 0.368500 0.925600
vt 0.795900 0.925600
vt 0.368500 0.053800
vt 0.269800 0.053800
vt 0.646700 0.925600
vt 0.712800 0.921000
vt 0.716500 0.049200
vt 0.650500 0.053800
vt 0.204100 0.448600
vt 0.269800 0.448600
vt 0.269800 0.349500
vt 0.368500 0.349500
vt 0.368500 0.283500
vt 0.204100 0.283500
vt 0.204100 0.287200
vt 0.204100 0.353300
vt 0.631500 0.353300
vt 0.631500 0.716500
vt 0.697300 0.716500
vt 0.697300 0.287200
vt 0.631500 0.049200
vt 0.795900 0.049200
vt 0.697300 0.921000
vt 0.204100 0.921000
vt 0.283500 0.049200
vt 0.448600 0.060700
vt 0.716500 0.950800
vt 0.287200 0.921000
vt 0.204100 0.060700
vt 0.269800 0.060700
vt 0.368500 0.950800
vt 0.302700 0.950800
vt 0.551400 0.060700
vt 0.650500 0.053800
vt 0.646700 0.925600
vt 0.283500 0.950800
vt 0.269800 0.053800
vt 0.368500 0.053800
vt 0.795900 0.925600
vt 0.368500 0.925600
vt 0.650500 0.053800
vt 0.716500 0.049200
vt 0.712800 0.921000
vt 0.646700 0.925600
vt 0.204100 0.283500
vt 0.368500 0.283500
vt 0.368500 0.349500
vt 0.269800 0.349500
vt 0.269800 0.448600
vt 0.204100 0.448600
vt 0.697300 0.287200
vt 0.697300 0.716500
vt 0.631500 0.716500
vt 0.631500 0.353300
vt 0.204100 0.353300
vt 0.204100 0.287200
vt 0.204100 0.921000
vt 0.697300 0.921000
vt 0.795900 0.049200
vt 0.631500 0.049200
vt 0.287200 0.921000
vt 0.716500 0.950800
vt 0.448600 0.060700
vt 0.283500 0.049200
vt 0.302700 0.950800
vt 0.368500 0.950800
vt 0.269800 0.060700
vt 0.204100 0.060700
vt 0.283500 0.950800
vt 0.646700 0.925600
vt 0.650500 0.053800
vt 0.551400 0.060700
vt 0.368500 0.925600
vt 0.795900 0.925600
vt 0.368500 0.053800
vt 0.269800 0.053800
vt 0.646700 0.925600
vt 0.712800 0.921000
vt 0.716500 0.049200
vt 0.650500 0.053800
vt 0.204100 0.448600
vt 0.269800 0.448600
vt 0.269800 0.349500
vt 0.368500 0.349500
vt 0.368500 0.283500
vt 0.204100 0.283500
vt 0.204100 0.287200
vt 0.204100 0.353300
vt 0.631500 0.353300
vt 0.631500 0.716500
vt 0.697300 0.716500
vt 0.697300 0.287200
vn 0.5776 -0.5774 -0.5770
vn 0.5770 -0.5774 0.5776
vn -0.5776 -0.5774 0.5770
vn -0.5770 -0.5774 -0.5776
vn 0.5776 0.5774 -0.5770
vn -0.5770 0.5774 -0.5776
vn -0.5776 0.5774 0.5770
vn 0.5770 0.5774 0.5776
vn 0.5777 -0.5774 -0.5769
vn -0.5769 -0.5774 -0.5777
vn -0.5769 0.5774 -0.5777
vn 0.5777 0.5774 -0.5769
vn -0.5777 -0.5774 0.5769
vn 0.5769 -0.5774 0.5777
vn 0.5769 0.5774 0.5777
vn -0.5777 0.5774 0.5769
vn 0.4500 -0.6242 -0.6386
vn -0.5994 -0.5220 -0.6068
vn -0.5515 0.6320 -0.5445
vn 0.6936 0.4883 -0.5295
vn -0.5994 -0.5256 -0.6037
vn -0.6286 -0.6312 0.4544
vn -0.5387 0.4868 0.6876
vn -0.5510 0.6286 -0.5488
vn -0.6271 -0.6414 0.4419
vn 0.5638 -0.6976 0.4422
vn 0.5857 0.4371 0.6826
vn -0.5381 0.4717 0.6985
vn 0.5623 -0.6887 0.4577
vn 0.5994 0.5254 0.6039
vn 0.5510 -0.6285 0.5489
vn 0.5850 0.4509 0.6741
vn 0.5994 0.5219 0.6068
vn 0.4497 -0.6970 0.5585
vn 0.6770 0.4407 0.5894
vn 0.5516 -0.6319 0.5445
vn 0.4472 -0.6939 0.5644
vn 0.4504 -0.6294 -0.6332
vn 0.6956 0.4831 -0.5318
vn 0.6766 0.4439 0.5875
vn -0.5993 -0.5299 -0.6001
vn 0.4508 -0.6318 -0.6306
vn 0.4506 -0.6892 0.5674
vn 0.5993 0.5299 0.6001
vn 0.5637 -0.6785 0.4710
vn -0.6272 -0.6222 0.4685
vn -0.5518 0.6247 -0.5525
vn -0.5378 0.5008 0.6782
vn 0.5859 0.4652 0.6636
vn 0.5518 -0.6247 0.5525
vn 0.6764 0.4491 0.5837
vn 0.6930 0.4824 -0.5357
vn -0.6929 0.4882 -0.5305
vn 0.5524 0.6319 -0.5437
vn 0.6003 -0.5219 -0.6060
vn -0.4491 -0.6243 -0.6392
vn 0.5516 0.6287 -0.5481
vn 0.5380 0.4868 0.6881
vn 0.6281 -0.6312 0.4551
vn 0.6001 -0.5257 -0.6029
vn 0.5373 0.4717 0.6992
vn -0.5866 0.4370 0.6818
vn -0.5645 -0.6975 0.4414
vn 0.6265 -0.6415 0.4427
vn -0.5858 0.4509 0.6734
vn -0.5516 -0.6285 0.5483
vn -0.6001 0.5254 0.6032
vn -0.5628 -0.6887 0.4571
vn -0.5523 -0.6319 0.5437
vn -0.6779 0.4407 0.5884
vn -0.4505 -0.6970 0.5579
vn -0.6003 0.5220 0.6059
vn -0.6773 0.4440 0.5866
vn -0.6950 0.4830 -0.5326
vn -0.4496 -0.6295 -0.6337
vn -0.4478 -0.6938 0.5640
vn 0.6267 -0.6222 0.4692
vn -0.5643 -0.6785 0.4703
vn -0.6001 0.5299 0.5993
vn -0.4513 -0.6892 0.5669
vn -0.4500 -0.6318 -0.6311
vn 0.6001 -0.5299 -0.5993
vn -0.6924 0.4824 -0.5365
vn -0.6772 0.4491 0.5829
vn -0.5525 -0.6247 0.5518
vn -0.5867 0.4652 0.6629
vn 0.5371 0.5008 0.6788
vn 0.5525 0.6247 -0.5518
vn -0.4501 -0.6242 0.6386
vn 0.5994 -0.5220 0.6068
vn 0.5515 0.6320 0.5445
vn -0.6936 0.4883 0.5295
vn 0.5994 -0.5256 0.6037
vn 0.6286 -0.6312 -0.4544
vn 0.5387 0.4868 -0.6876
vn 0.5510 0.6286 0.5488
vn 0.6271 -0.6414 -0.4419
vn -0.5638 -0.6976 -0.4422
vn -0.5857 0.4370 -0.6826
vn 0.5381 0.4717 -0.6985
vn -0.5623 -0.6887 -0.4577
vn -0.5994 0.5254 -0.6039
vn -0.5510 -0.6285 -0.5489
vn -0.5850 0.4509 -0.6741
vn -0.5995 0.5219 -0.6068
vn -0.4497 -0.6970 -0.5585
vn -0.6770 0.4407 -0.5894
vn -0.5516 -0.6319 -0.5445
vn -0.4472 -0.6939 -0.5644
vn -0.4504 -0.6294 0.6332
vn -0.6956 0.4831 0.5318
vn -0.6766 0.4439 -0.5875
vn 0.5993 -0.5299 0.6001
vn -0.4508 -0.6318 0.6306
vn -0.4506 -0.6892 -0.5674
vn -0.5993 0.5299 -0.6001
vn -0.5637 -0.6785 -0.4710
vn 0.6273 -0.6222 -0.4684
vn 0.5518 0.6247 0.5525
vn 0.5379 0.5008 -0.6781
vn -0.5859 0.4652 -0.6636
vn -0.5518 -0.6247 -0.5525
vn -0.6764 0.4491 -0.5838
vn -0.6930 0.4824 0.5357
vn 0.6929 0.4882 0.5305
vn -0.5524 0.6319 0.5437
vn -0.6003 -0.5219 0.6060
vn 0.4492 -0.6242 0.6392
vn -0.5516 0.6287 0.5481
vn -0.5380 0.4868 -0.6881
vn -0.6281 -0.6312 -0.4551
vn -0.6001 -0.5257 0.6029
vn -0.5372 0.4717 -0.6992
vn 0.5865 0.4371 -0.6819
vn 0.5645 -0.6975 -0.4414
vn -0.6265 -0.6415 -0.4427
vn 0.5858 0.4509 -0.6734
vn 0.5516 -0.6285 -0.5483
vn 0.6001 0.5254 -0.6032
vn 0.5628 -0.6887 -0.4571
vn 0.5523 -0.6319 -0.5437
vn 0.6779 0.4407 -0.5885
vn 0.4505 -0.6970 -0.5579
vn 0.6003 0.5219 -0.6060
vn 0.6773 0.4440 -0.5866
vn 0.6950 0.4830 0.5326
vn 0.4496 -0.6295 0.6337
vn 0.4478 -0.6938 -0.5640
vn -0.6267 -0.6222 -0.4692
vn 0.5643 -0.6785 -0.4703
vn 0.6001 0.5299 -0.5993
vn 0.4513 -0.6892 -0.5669
vn 0.4501 -0.6318 0.6311
vn -0.6001 -0.5299 0.5993
vn 0.6924 0.4824 0.5365
vn 0.6772 0.4491 -0.5829
vn 0.5525 -0.6247 -0.5518
vn 0.5867 0.4652 -0.6628
vn -0.5371 0.5008 -0.6788
vn -0.5525 0.6247 0.5518
usemtl wire_088144225
s 1
f 1/1/1 2/2/2 3/3/3 4/4/4
f 5/5/5 6/6/6 7/7/7 8/8/8
f 1/9/9 4/10/10 6/11/11 5/12/12
f 4/4/4 3/13/3 7/14/7 6/15/6
f 3/16/13 2/17/14 8/18/15 7/19/16
f 2/20/2 1/21/1 5/22/5 8/23/8
f 9/24/17 10/25/18 11/26/19 12/27/20
f 10/28/21 13/29/22 14/30/23 11/31/24
f 13/32/25 15/33/26 16/34/27 14/35/28
f 15/36/29 17/37/30 18/38/31 16/39/32
f 17/40/33 19/41/34 20/42/35 18/43/36
f 19/44/37 9/45/38 12/46/39 20/47/40
f 10/48/41 9/49/42 19/50/43 17/51/44 15/52/45 13/53/46
f 11/54/47 14/55/48 16/56/49 18/57/50 20/58/51 12/59/52
f 21/60/53 22/61/54 23/62/55 24/63/56
f 22/64/57 25/65/58 26/66/59 23/67/60
f 25/68/61 27/69/62 28/70/63 26/71/64
f 27/72/65 29/73/66 30/74/67 28/75/68
f 29/76/69 31/77/70 32/78/71 30/79/72
f 31/80/73 21/81/74 24/82/75 32/83/76
f 26/84/77 28/85/78 30/86/79 32/87/80 24/88/81 23/89/82
f 21/90/83 31/91/84 29/92/85 27/93/86 25/94/87 22/95/88
f 33/96/89 34/97/90 35/98/91 36/99/92
f 34/100/93 37/101/94 38/102/95 35/103/96
f 37/104/97 39/105/98 40/106/99 38/107/100
f 39/108/101 41/109/102 42/110/103 40/111/104
f 41/112/105 43/113/106 44/114/107 42/115/108
f 43/116/109 33/117/110 36/118/111 44/119/112
f 34/120/113 33/121/114 43/122/115 41/123/116 39/124/117 37/125/118
f 35/126/119 38/127/120 40/128/121 42/129/122 44/130/123 36/131/124
f 45/132/125 46/133/126 47/134/127 48/135/128
f 46/136/129 49/137/130 50/138/131 47/139/132
f 49/140/133 51/141/134 52/142/135 50/143/136
f 51/144/137 53/145/138 54/146/139 52/147/140
f 53/148/141 55/149/142 56/150/143 54/151/144
f 55/152/145 45/153/146 48/154/147 56/155/148
f 50/156/149 52/157/150 54/158/151 56/159/152 48/160/153 47/161/154
f 45/162/155 55/163/156 53/164/157 51/165/158 49/166/159 46/167/160
