# Blender v2.83.0 OBJ File: ''
# www.blender.org
mtllib TV-frame.mtl
o TV_FlatScr
v -146.220428 2.076527 -209.068863
v -26.449589 6.652592 -205.547989
v -31.164223 2.076527 -209.068863
v -150.935028 6.652592 -205.547989
v -146.220428 -60.740036 -209.068863
v -150.935028 6.652592 -205.547989
v -146.220428 2.076527 -209.068863
v -150.935028 -65.316055 -205.547989
v -146.220428 -60.740036 -209.068863
v -26.449589 -65.316055 -205.547989
v -150.935028 -65.316055 -205.547989
v -31.164223 -60.740036 -209.068863
v -146.220428 -60.740036 -205.547989
v -31.164223 -60.740036 -209.068863
v -146.220428 -60.740036 -209.068863
v -31.164223 -60.740036 -205.547989
v -31.164223 -60.740036 -205.045013
v -146.220428 -60.740036 -205.044998
v -146.220428 -60.740036 -205.547989
v -146.220428 2.076527 -205.044998
v -146.220428 -60.740036 -205.044998
v -146.220428 2.076527 -205.547989
v -146.220428 2.076527 -209.068863
v -146.220428 -60.740036 -209.068863
v -31.164223 2.076527 -209.068863
v -146.220428 -60.740036 -209.068863
v -146.220428 2.076527 -209.068863
v -31.164223 -60.740036 -209.068863
v -26.449589 6.652592 -205.547989
v -31.164223 -60.740036 -209.068863
v -31.164223 2.076527 -209.068863
v -26.449589 -65.316055 -205.547989
v -26.449589 6.652592 -205.045013
v -26.449589 -65.316055 -205.547989
v -26.449589 6.652592 -205.547989
v -26.449589 -65.316055 -205.045013
v -31.164223 2.076527 -205.045013
v -26.449589 -65.316055 -205.045013
v -26.449589 6.652592 -205.045013
v -31.164223 -60.740036 -205.045013
v -79.697304 -62.735889 -205.045013
v -79.697304 -63.501495 -205.045013
v -97.180702 -63.501495 -205.045013
v -150.935028 -65.316055 -205.044998
v -146.220428 -60.740036 -205.044998
v -150.935028 6.652592 -205.044998
v -146.220428 2.076527 -205.044998
v -146.220428 2.076527 -205.547989
v -31.164223 2.076527 -205.045013
v -146.220428 2.076527 -205.044998
v -31.164223 2.076527 -205.547989
v -146.220428 2.076527 -209.068863
v -31.164223 2.076527 -209.068863
v -31.164223 -60.740036 -209.068863
v -31.164223 2.076527 -205.547989
v -31.164223 2.076527 -209.068863
v -31.164223 -60.740036 -205.547989
v -31.164223 2.076527 -205.045013
v -31.164223 -60.740036 -205.045013
v -26.449589 6.652592 -205.045013
v -150.935028 6.652592 -205.547989
v -150.935028 6.652592 -205.044998
v -26.449589 6.652592 -205.547989
v -150.935028 -65.316055 -205.547989
v -150.935028 6.652592 -205.044998
v -150.935028 6.652592 -205.547989
v -150.935028 -65.316055 -205.044998
v -150.935028 -65.316055 -205.547989
v -26.449589 -65.316055 -205.045013
v -150.935028 -65.316055 -205.044998
v -26.449589 -65.316055 -205.547989
v -97.180702 -62.735889 -205.045013
vt 18.303085 8.111181
vt -19.803085 11.919067
vt -18.303085 8.111181
vt 19.803085 11.919067
vt 0.000000 7.209939
vt -22.090973 11.017825
vt -20.590973 7.209939
vt 1.500000 11.017825
vt -18.303085 0.000000
vt 19.803085 3.807887
vt -19.803085 3.807887
vt 18.303085 -0.000000
vt 18.303085 3.500000
vt -18.303085 0.000000
vt 18.303085 0.000000
vt -18.303085 3.500000
vt -18.303085 4.000000
vt 18.303085 4.000000
vt 0.000000 3.500000
vt 20.590973 4.000000
vt -0.000000 4.000000
vt 20.590973 3.500000
vt 20.590973 0.000000
vt -0.000000 0.000000
vt -18.303085 20.590973
vt 18.303085 0.000000
vt 18.303085 20.590973
vt -18.303085 0.000000
vt 22.090973 11.017825
vt -0.000000 7.209939
vt 20.590973 7.209939
vt -1.500000 11.017825
vt 22.090973 4.000000
vt -1.500000 3.500000
vt 22.090973 3.500000
vt -1.500000 4.000000
vt 18.303085 20.590973
vt 19.803085 -1.500000
vt 19.803085 22.090973
vt 18.303085 0.000000
vt 2.861843 -0.717215
vt 2.861843 -0.842215
vt -2.700657 -0.842215
vt -19.803085 -1.500000
vt -18.303085 -0.000000
vt -19.803085 22.090973
vt -18.303085 20.590973
vt -18.303085 3.500000
vt 18.303085 4.000000
vt -18.303085 4.000000
vt 18.303085 3.500000
vt -18.303085 0.000000
vt 18.303085 0.000000
vt -0.000000 0.000000
vt -20.590973 3.500000
vt -20.590973 0.000000
vt -0.000000 3.500000
vt -20.590973 4.000000
vt -0.000000 4.000000
vt -19.803085 4.000000
vt 19.803085 3.500000
vt 19.803085 4.000000
vt -19.803085 3.500000
vt 1.500000 3.500000
vt -22.090973 4.000000
vt -22.090973 3.500000
vt 1.500000 4.000000
vt -19.803085 3.500000
vt 19.803085 4.000000
vt -19.803085 4.000000
vt 19.803085 3.500000
vt -2.700657 -0.717215
vn 0.0000 0.6098 -0.7926
vn -0.5984 0.0000 -0.8012
vn 0.0000 -0.6098 -0.7926
vn 0.0000 1.0000 0.0000
vn 1.0000 0.0000 0.0000
vn 0.0000 0.0000 -1.0000
vn 0.5984 0.0000 -0.8012
vn 0.0000 0.0000 1.0000
vn 0.0000 -1.0000 0.0000
vn -1.0000 0.0000 0.0000
usemtl Material.003
s off
f 1/1/1 2/2/1 3/3/1
f 2/2/1 1/1/1 4/4/1
f 5/5/2 6/6/2 7/7/2
f 6/6/2 5/5/2 8/8/2
f 9/9/3 10/10/3 11/11/3
f 10/10/3 9/9/3 12/12/3
f 13/13/4 14/14/4 15/15/4
f 14/14/4 13/13/4 16/16/4
f 13/13/4 17/17/4 16/16/4
f 17/17/4 13/13/4 18/18/4
f 19/19/5 20/20/5 21/21/5
f 20/20/5 19/19/5 22/22/5
f 19/19/5 23/23/5 22/22/5
f 23/23/5 19/19/5 24/24/5
f 25/25/6 26/26/6 27/27/6
f 26/26/6 25/25/6 28/28/6
f 29/29/7 30/30/7 31/31/7
f 30/30/7 29/29/7 32/32/7
f 33/33/5 34/34/5 35/35/5
f 34/34/5 33/33/5 36/36/5
f 37/37/8 38/38/8 39/39/8
f 40/40/8 38/38/8 37/37/8
f 41/41/8 38/38/8 40/40/8
f 42/42/8 38/38/8 41/41/8
f 43/43/8 38/38/8 42/42/8
f 43/43/8 44/44/8 38/38/8
f 45/45/8 44/44/8 43/43/8
f 44/44/8 45/45/8 46/46/8
f 47/47/8 46/46/8 45/45/8
f 46/46/8 47/47/8 39/39/8
f 39/39/8 47/47/8 37/37/8
f 48/48/9 49/49/9 50/50/9
f 49/49/9 48/48/9 51/51/9
f 52/52/9 51/51/9 48/48/9
f 51/51/9 52/52/9 53/53/9
f 54/54/10 55/55/10 56/56/10
f 55/55/10 54/54/10 57/57/10
f 57/57/10 58/58/10 55/55/10
f 58/58/10 57/57/10 59/59/10
f 60/60/4 61/61/4 62/62/4
f 61/61/4 60/60/4 63/63/4
f 64/64/10 65/65/10 66/66/10
f 65/65/10 64/64/10 67/67/10
f 68/68/9 69/69/9 70/70/9
f 69/69/9 68/68/9 71/71/9
f 72/72/8 45/45/8 43/43/8
f 45/45/8 72/72/8 40/40/8
f 40/40/8 72/72/8 41/41/8
usemtl Material.005
f 72/72/8 42/42/8 41/41/8
f 42/42/8 72/72/8 43/43/8
